<mxfile host="app.diagrams.net" modified="2022-06-07T08:47:16.660Z" agent="5.0 (Windows NT 10.0; Win64; x64) AppleWebKit/537.36 (KHTML, like Gecko) Chrome/102.0.5005.63 Safari/537.36 Edg/102.0.1245.30" etag="47JflTaAOvyZzYxeKtuR" version="19.0.1" type="github">
  <diagram id="C5RBs43oDa-KdzZeNtuy" name="Page-1">
    <mxGraphModel dx="2370" dy="1523" grid="1" gridSize="10" guides="1" tooltips="1" connect="1" arrows="1" fold="1" page="1" pageScale="1" pageWidth="827" pageHeight="1169" math="0" shadow="0">
      <root>
        <mxCell id="WIyWlLk6GJQsqaUBKTNV-0" />
        <mxCell id="WIyWlLk6GJQsqaUBKTNV-1" parent="WIyWlLk6GJQsqaUBKTNV-0" />
        <mxCell id="GurUiTmw81_vaHMGaT-g-2" style="edgeStyle=orthogonalEdgeStyle;rounded=0;orthogonalLoop=1;jettySize=auto;html=1;exitX=0.5;exitY=1;exitDx=0;exitDy=0;entryX=0.5;entryY=0;entryDx=0;entryDy=0;" edge="1" parent="WIyWlLk6GJQsqaUBKTNV-1" source="GurUiTmw81_vaHMGaT-g-0" target="GurUiTmw81_vaHMGaT-g-1">
          <mxGeometry relative="1" as="geometry" />
        </mxCell>
        <mxCell id="GurUiTmw81_vaHMGaT-g-0" value="START" style="ellipse;whiteSpace=wrap;html=1;" vertex="1" parent="WIyWlLk6GJQsqaUBKTNV-1">
          <mxGeometry x="170" y="30" width="120" height="80" as="geometry" />
        </mxCell>
        <mxCell id="GurUiTmw81_vaHMGaT-g-6" style="edgeStyle=orthogonalEdgeStyle;rounded=0;orthogonalLoop=1;jettySize=auto;html=1;exitX=0.5;exitY=1;exitDx=0;exitDy=0;entryX=0.5;entryY=0;entryDx=0;entryDy=0;" edge="1" parent="WIyWlLk6GJQsqaUBKTNV-1" source="GurUiTmw81_vaHMGaT-g-1" target="GurUiTmw81_vaHMGaT-g-4">
          <mxGeometry relative="1" as="geometry" />
        </mxCell>
        <mxCell id="GurUiTmw81_vaHMGaT-g-1" value="int value" style="shape=parallelogram;perimeter=parallelogramPerimeter;whiteSpace=wrap;html=1;fixedSize=1;" vertex="1" parent="WIyWlLk6GJQsqaUBKTNV-1">
          <mxGeometry x="170" y="140" width="120" height="60" as="geometry" />
        </mxCell>
        <mxCell id="GurUiTmw81_vaHMGaT-g-59" style="edgeStyle=orthogonalEdgeStyle;rounded=0;orthogonalLoop=1;jettySize=auto;html=1;exitX=0.5;exitY=1;exitDx=0;exitDy=0;entryX=0.5;entryY=0;entryDx=0;entryDy=0;" edge="1" parent="WIyWlLk6GJQsqaUBKTNV-1" source="GurUiTmw81_vaHMGaT-g-4" target="GurUiTmw81_vaHMGaT-g-25">
          <mxGeometry relative="1" as="geometry" />
        </mxCell>
        <mxCell id="GurUiTmw81_vaHMGaT-g-4" value="reverseDisplay(int value)" style="shape=process;whiteSpace=wrap;html=1;backgroundOutline=1;" vertex="1" parent="WIyWlLk6GJQsqaUBKTNV-1">
          <mxGeometry x="170" y="230" width="120" height="60" as="geometry" />
        </mxCell>
        <mxCell id="GurUiTmw81_vaHMGaT-g-16" value="" style="edgeStyle=orthogonalEdgeStyle;rounded=0;orthogonalLoop=1;jettySize=auto;html=1;" edge="1" parent="WIyWlLk6GJQsqaUBKTNV-1" source="GurUiTmw81_vaHMGaT-g-13" target="GurUiTmw81_vaHMGaT-g-15">
          <mxGeometry relative="1" as="geometry" />
        </mxCell>
        <mxCell id="GurUiTmw81_vaHMGaT-g-13" value="reverseDisplay(int value)" style="ellipse;whiteSpace=wrap;html=1;" vertex="1" parent="WIyWlLk6GJQsqaUBKTNV-1">
          <mxGeometry x="465" y="30" width="150" height="70" as="geometry" />
        </mxCell>
        <mxCell id="GurUiTmw81_vaHMGaT-g-19" value="T" style="edgeStyle=orthogonalEdgeStyle;rounded=0;orthogonalLoop=1;jettySize=auto;html=1;" edge="1" parent="WIyWlLk6GJQsqaUBKTNV-1" source="GurUiTmw81_vaHMGaT-g-15" target="GurUiTmw81_vaHMGaT-g-18">
          <mxGeometry relative="1" as="geometry" />
        </mxCell>
        <mxCell id="GurUiTmw81_vaHMGaT-g-20" value="F" style="edgeStyle=orthogonalEdgeStyle;rounded=0;orthogonalLoop=1;jettySize=auto;html=1;exitX=0.5;exitY=1;exitDx=0;exitDy=0;entryX=0.5;entryY=0;entryDx=0;entryDy=0;" edge="1" parent="WIyWlLk6GJQsqaUBKTNV-1" source="GurUiTmw81_vaHMGaT-g-15" target="GurUiTmw81_vaHMGaT-g-21">
          <mxGeometry relative="1" as="geometry">
            <mxPoint x="540.4705882352941" y="259.9999999999998" as="targetPoint" />
          </mxGeometry>
        </mxCell>
        <mxCell id="GurUiTmw81_vaHMGaT-g-15" value="value==0?" style="rhombus;whiteSpace=wrap;html=1;" vertex="1" parent="WIyWlLk6GJQsqaUBKTNV-1">
          <mxGeometry x="472.5" y="140" width="135" height="80" as="geometry" />
        </mxCell>
        <mxCell id="GurUiTmw81_vaHMGaT-g-18" value="return" style="whiteSpace=wrap;html=1;" vertex="1" parent="WIyWlLk6GJQsqaUBKTNV-1">
          <mxGeometry x="645" y="150" width="120" height="60" as="geometry" />
        </mxCell>
        <mxCell id="GurUiTmw81_vaHMGaT-g-49" style="edgeStyle=orthogonalEdgeStyle;rounded=0;orthogonalLoop=1;jettySize=auto;html=1;exitX=0.5;exitY=1;exitDx=0;exitDy=0;entryX=0.5;entryY=0;entryDx=0;entryDy=0;" edge="1" parent="WIyWlLk6GJQsqaUBKTNV-1" source="GurUiTmw81_vaHMGaT-g-21" target="GurUiTmw81_vaHMGaT-g-48">
          <mxGeometry relative="1" as="geometry" />
        </mxCell>
        <mxCell id="GurUiTmw81_vaHMGaT-g-21" value="value %10" style="rounded=0;whiteSpace=wrap;html=1;" vertex="1" parent="WIyWlLk6GJQsqaUBKTNV-1">
          <mxGeometry x="480" y="250" width="120" height="60" as="geometry" />
        </mxCell>
        <mxCell id="GurUiTmw81_vaHMGaT-g-29" value="" style="edgeStyle=orthogonalEdgeStyle;rounded=0;orthogonalLoop=1;jettySize=auto;html=1;" edge="1" parent="WIyWlLk6GJQsqaUBKTNV-1" source="GurUiTmw81_vaHMGaT-g-25" target="GurUiTmw81_vaHMGaT-g-28">
          <mxGeometry relative="1" as="geometry" />
        </mxCell>
        <mxCell id="GurUiTmw81_vaHMGaT-g-25" value="string s" style="shape=parallelogram;perimeter=parallelogramPerimeter;whiteSpace=wrap;html=1;fixedSize=1;" vertex="1" parent="WIyWlLk6GJQsqaUBKTNV-1">
          <mxGeometry x="170" y="330" width="120" height="60" as="geometry" />
        </mxCell>
        <mxCell id="GurUiTmw81_vaHMGaT-g-31" value="" style="edgeStyle=orthogonalEdgeStyle;rounded=0;orthogonalLoop=1;jettySize=auto;html=1;" edge="1" parent="WIyWlLk6GJQsqaUBKTNV-1" source="GurUiTmw81_vaHMGaT-g-28" target="GurUiTmw81_vaHMGaT-g-30">
          <mxGeometry relative="1" as="geometry" />
        </mxCell>
        <mxCell id="GurUiTmw81_vaHMGaT-g-28" value="reverseDisplay(const string &amp;amp;s)" style="shape=process;whiteSpace=wrap;html=1;backgroundOutline=1;" vertex="1" parent="WIyWlLk6GJQsqaUBKTNV-1">
          <mxGeometry x="170" y="420" width="120" height="60" as="geometry" />
        </mxCell>
        <mxCell id="GurUiTmw81_vaHMGaT-g-30" value="END" style="ellipse;whiteSpace=wrap;html=1;" vertex="1" parent="WIyWlLk6GJQsqaUBKTNV-1">
          <mxGeometry x="170" y="510" width="120" height="80" as="geometry" />
        </mxCell>
        <mxCell id="GurUiTmw81_vaHMGaT-g-36" style="edgeStyle=orthogonalEdgeStyle;rounded=0;orthogonalLoop=1;jettySize=auto;html=1;entryX=0.5;entryY=0;entryDx=0;entryDy=0;" edge="1" parent="WIyWlLk6GJQsqaUBKTNV-1" source="GurUiTmw81_vaHMGaT-g-32" target="GurUiTmw81_vaHMGaT-g-35">
          <mxGeometry relative="1" as="geometry" />
        </mxCell>
        <mxCell id="GurUiTmw81_vaHMGaT-g-32" value="reverseDisplay(const string &amp;amp;s)" style="ellipse;whiteSpace=wrap;html=1;" vertex="1" parent="WIyWlLk6GJQsqaUBKTNV-1">
          <mxGeometry x="450" y="470" width="180" height="70" as="geometry" />
        </mxCell>
        <mxCell id="GurUiTmw81_vaHMGaT-g-38" value="" style="edgeStyle=orthogonalEdgeStyle;rounded=0;orthogonalLoop=1;jettySize=auto;html=1;" edge="1" parent="WIyWlLk6GJQsqaUBKTNV-1" source="GurUiTmw81_vaHMGaT-g-35" target="GurUiTmw81_vaHMGaT-g-37">
          <mxGeometry relative="1" as="geometry" />
        </mxCell>
        <mxCell id="GurUiTmw81_vaHMGaT-g-35" value="string temp" style="shape=parallelogram;perimeter=parallelogramPerimeter;whiteSpace=wrap;html=1;fixedSize=1;" vertex="1" parent="WIyWlLk6GJQsqaUBKTNV-1">
          <mxGeometry x="480" y="570" width="120" height="60" as="geometry" />
        </mxCell>
        <mxCell id="GurUiTmw81_vaHMGaT-g-41" value="T" style="edgeStyle=orthogonalEdgeStyle;rounded=0;orthogonalLoop=1;jettySize=auto;html=1;" edge="1" parent="WIyWlLk6GJQsqaUBKTNV-1" source="GurUiTmw81_vaHMGaT-g-37" target="GurUiTmw81_vaHMGaT-g-40">
          <mxGeometry relative="1" as="geometry" />
        </mxCell>
        <mxCell id="GurUiTmw81_vaHMGaT-g-51" value="F" style="edgeStyle=orthogonalEdgeStyle;rounded=0;orthogonalLoop=1;jettySize=auto;html=1;exitX=0.5;exitY=1;exitDx=0;exitDy=0;entryX=0.5;entryY=0;entryDx=0;entryDy=0;" edge="1" parent="WIyWlLk6GJQsqaUBKTNV-1" source="GurUiTmw81_vaHMGaT-g-37" target="GurUiTmw81_vaHMGaT-g-50">
          <mxGeometry relative="1" as="geometry" />
        </mxCell>
        <mxCell id="GurUiTmw81_vaHMGaT-g-37" value="s.length() == 0?" style="rhombus;whiteSpace=wrap;html=1;" vertex="1" parent="WIyWlLk6GJQsqaUBKTNV-1">
          <mxGeometry x="490" y="660" width="100" height="80" as="geometry" />
        </mxCell>
        <mxCell id="GurUiTmw81_vaHMGaT-g-40" value="return" style="whiteSpace=wrap;html=1;" vertex="1" parent="WIyWlLk6GJQsqaUBKTNV-1">
          <mxGeometry x="630" y="670" width="120" height="60" as="geometry" />
        </mxCell>
        <mxCell id="GurUiTmw81_vaHMGaT-g-48" value="reverseDisplay(value/10)" style="shape=process;whiteSpace=wrap;html=1;backgroundOutline=1;" vertex="1" parent="WIyWlLk6GJQsqaUBKTNV-1">
          <mxGeometry x="450" y="340" width="180" height="70" as="geometry" />
        </mxCell>
        <mxCell id="GurUiTmw81_vaHMGaT-g-54" style="edgeStyle=orthogonalEdgeStyle;rounded=0;orthogonalLoop=1;jettySize=auto;html=1;exitX=0.5;exitY=1;exitDx=0;exitDy=0;entryX=0.5;entryY=0;entryDx=0;entryDy=0;" edge="1" parent="WIyWlLk6GJQsqaUBKTNV-1" source="GurUiTmw81_vaHMGaT-g-50" target="GurUiTmw81_vaHMGaT-g-52">
          <mxGeometry relative="1" as="geometry" />
        </mxCell>
        <mxCell id="GurUiTmw81_vaHMGaT-g-50" value="print&lt;br&gt;s[s.length()-1]" style="rounded=0;whiteSpace=wrap;html=1;" vertex="1" parent="WIyWlLk6GJQsqaUBKTNV-1">
          <mxGeometry x="480" y="770" width="120" height="60" as="geometry" />
        </mxCell>
        <mxCell id="GurUiTmw81_vaHMGaT-g-56" style="edgeStyle=orthogonalEdgeStyle;rounded=0;orthogonalLoop=1;jettySize=auto;html=1;exitX=0.5;exitY=1;exitDx=0;exitDy=0;entryX=0.5;entryY=0;entryDx=0;entryDy=0;" edge="1" parent="WIyWlLk6GJQsqaUBKTNV-1" source="GurUiTmw81_vaHMGaT-g-52" target="GurUiTmw81_vaHMGaT-g-55">
          <mxGeometry relative="1" as="geometry" />
        </mxCell>
        <mxCell id="GurUiTmw81_vaHMGaT-g-52" value="i =0 i&amp;lt;s.length()-1 i++" style="shape=loopLimit;whiteSpace=wrap;html=1;" vertex="1" parent="WIyWlLk6GJQsqaUBKTNV-1">
          <mxGeometry x="455" y="860" width="170" height="40" as="geometry" />
        </mxCell>
        <mxCell id="GurUiTmw81_vaHMGaT-g-53" style="edgeStyle=orthogonalEdgeStyle;rounded=0;orthogonalLoop=1;jettySize=auto;html=1;exitX=0.5;exitY=1;exitDx=0;exitDy=0;" edge="1" parent="WIyWlLk6GJQsqaUBKTNV-1" source="GurUiTmw81_vaHMGaT-g-52" target="GurUiTmw81_vaHMGaT-g-52">
          <mxGeometry relative="1" as="geometry" />
        </mxCell>
        <mxCell id="GurUiTmw81_vaHMGaT-g-58" style="edgeStyle=orthogonalEdgeStyle;rounded=0;orthogonalLoop=1;jettySize=auto;html=1;exitX=0.5;exitY=1;exitDx=0;exitDy=0;entryX=0.5;entryY=0;entryDx=0;entryDy=0;" edge="1" parent="WIyWlLk6GJQsqaUBKTNV-1" source="GurUiTmw81_vaHMGaT-g-55" target="GurUiTmw81_vaHMGaT-g-57">
          <mxGeometry relative="1" as="geometry" />
        </mxCell>
        <mxCell id="GurUiTmw81_vaHMGaT-g-55" value="temp += s[i]" style="rounded=0;whiteSpace=wrap;html=1;" vertex="1" parent="WIyWlLk6GJQsqaUBKTNV-1">
          <mxGeometry x="480" y="930" width="120" height="60" as="geometry" />
        </mxCell>
        <mxCell id="GurUiTmw81_vaHMGaT-g-57" value="reverseDisplay(temp)" style="shape=process;whiteSpace=wrap;html=1;backgroundOutline=1;" vertex="1" parent="WIyWlLk6GJQsqaUBKTNV-1">
          <mxGeometry x="455" y="1030" width="170" height="60" as="geometry" />
        </mxCell>
        <mxCell id="GurUiTmw81_vaHMGaT-g-76" value="Orgchart" style="swimlane;startSize=20;horizontal=1;containerType=tree;newEdgeStyle={&quot;edgeStyle&quot;:&quot;elbowEdgeStyle&quot;,&quot;startArrow&quot;:&quot;none&quot;,&quot;endArrow&quot;:&quot;none&quot;};" vertex="1" parent="WIyWlLk6GJQsqaUBKTNV-1">
          <mxGeometry x="960" y="100" width="1270" height="360" as="geometry" />
        </mxCell>
        <mxCell id="GurUiTmw81_vaHMGaT-g-77" value="" style="edgeStyle=elbowEdgeStyle;elbow=vertical;startArrow=none;endArrow=none;rounded=0;" edge="1" parent="GurUiTmw81_vaHMGaT-g-76" source="GurUiTmw81_vaHMGaT-g-79" target="GurUiTmw81_vaHMGaT-g-80">
          <mxGeometry relative="1" as="geometry" />
        </mxCell>
        <mxCell id="GurUiTmw81_vaHMGaT-g-78" value="" style="edgeStyle=elbowEdgeStyle;elbow=vertical;startArrow=none;endArrow=none;rounded=0;" edge="1" parent="GurUiTmw81_vaHMGaT-g-76" source="GurUiTmw81_vaHMGaT-g-79" target="GurUiTmw81_vaHMGaT-g-81">
          <mxGeometry relative="1" as="geometry" />
        </mxCell>
        <UserObject label="A B C" treeRoot="1" id="GurUiTmw81_vaHMGaT-g-79">
          <mxCell style="whiteSpace=wrap;html=1;align=center;treeFolding=1;treeMoving=1;newEdgeStyle={&quot;edgeStyle&quot;:&quot;elbowEdgeStyle&quot;,&quot;startArrow&quot;:&quot;none&quot;,&quot;endArrow&quot;:&quot;none&quot;};" vertex="1" parent="GurUiTmw81_vaHMGaT-g-76">
            <mxGeometry x="575" y="40" width="120" height="60" as="geometry" />
          </mxCell>
        </UserObject>
        <mxCell id="GurUiTmw81_vaHMGaT-g-80" value="A&amp;nbsp; B C" style="whiteSpace=wrap;html=1;align=center;verticalAlign=middle;treeFolding=1;treeMoving=1;newEdgeStyle={&quot;edgeStyle&quot;:&quot;elbowEdgeStyle&quot;,&quot;startArrow&quot;:&quot;none&quot;,&quot;endArrow&quot;:&quot;none&quot;};" vertex="1" parent="GurUiTmw81_vaHMGaT-g-76">
          <mxGeometry x="430" y="160" width="100" height="60" as="geometry" />
        </mxCell>
        <mxCell id="GurUiTmw81_vaHMGaT-g-81" value="B A C" style="whiteSpace=wrap;html=1;align=center;verticalAlign=middle;treeFolding=1;treeMoving=1;newEdgeStyle={&quot;edgeStyle&quot;:&quot;elbowEdgeStyle&quot;,&quot;startArrow&quot;:&quot;none&quot;,&quot;endArrow&quot;:&quot;none&quot;};" vertex="1" parent="GurUiTmw81_vaHMGaT-g-76">
          <mxGeometry x="630" y="160" width="100" height="60" as="geometry" />
        </mxCell>
        <mxCell id="GurUiTmw81_vaHMGaT-g-82" value="" style="edgeStyle=elbowEdgeStyle;elbow=vertical;startArrow=none;endArrow=none;rounded=0;" edge="1" target="GurUiTmw81_vaHMGaT-g-83" source="GurUiTmw81_vaHMGaT-g-80" parent="GurUiTmw81_vaHMGaT-g-76">
          <mxGeometry relative="1" as="geometry">
            <mxPoint x="1575" y="210" as="sourcePoint" />
          </mxGeometry>
        </mxCell>
        <mxCell id="GurUiTmw81_vaHMGaT-g-83" value="A C B" style="whiteSpace=wrap;html=1;align=center;verticalAlign=middle;treeFolding=1;treeMoving=1;newEdgeStyle={&quot;edgeStyle&quot;:&quot;elbowEdgeStyle&quot;,&quot;startArrow&quot;:&quot;none&quot;,&quot;endArrow&quot;:&quot;none&quot;};" vertex="1" parent="GurUiTmw81_vaHMGaT-g-76">
          <mxGeometry x="280" y="260" width="100" height="60" as="geometry" />
        </mxCell>
        <mxCell id="GurUiTmw81_vaHMGaT-g-84" value="" style="edgeStyle=elbowEdgeStyle;elbow=vertical;startArrow=none;endArrow=none;rounded=0;" edge="1" target="GurUiTmw81_vaHMGaT-g-85" source="GurUiTmw81_vaHMGaT-g-80" parent="GurUiTmw81_vaHMGaT-g-76">
          <mxGeometry relative="1" as="geometry">
            <mxPoint x="1575" y="210" as="sourcePoint" />
          </mxGeometry>
        </mxCell>
        <mxCell id="GurUiTmw81_vaHMGaT-g-85" value="A B C" style="whiteSpace=wrap;html=1;align=center;verticalAlign=middle;treeFolding=1;treeMoving=1;newEdgeStyle={&quot;edgeStyle&quot;:&quot;elbowEdgeStyle&quot;,&quot;startArrow&quot;:&quot;none&quot;,&quot;endArrow&quot;:&quot;none&quot;};" vertex="1" parent="GurUiTmw81_vaHMGaT-g-76">
          <mxGeometry x="430" y="260" width="100" height="60" as="geometry" />
        </mxCell>
        <mxCell id="GurUiTmw81_vaHMGaT-g-88" value="" style="edgeStyle=elbowEdgeStyle;elbow=vertical;startArrow=none;endArrow=none;rounded=0;" edge="1" target="GurUiTmw81_vaHMGaT-g-89" source="GurUiTmw81_vaHMGaT-g-81" parent="GurUiTmw81_vaHMGaT-g-76">
          <mxGeometry relative="1" as="geometry">
            <mxPoint x="1585" y="210" as="sourcePoint" />
          </mxGeometry>
        </mxCell>
        <mxCell id="GurUiTmw81_vaHMGaT-g-89" value="B A C" style="whiteSpace=wrap;html=1;align=center;verticalAlign=middle;treeFolding=1;treeMoving=1;newEdgeStyle={&quot;edgeStyle&quot;:&quot;elbowEdgeStyle&quot;,&quot;startArrow&quot;:&quot;none&quot;,&quot;endArrow&quot;:&quot;none&quot;};" vertex="1" parent="GurUiTmw81_vaHMGaT-g-76">
          <mxGeometry x="594" y="260" width="100" height="60" as="geometry" />
        </mxCell>
        <mxCell id="GurUiTmw81_vaHMGaT-g-90" value="" style="edgeStyle=elbowEdgeStyle;elbow=vertical;startArrow=none;endArrow=none;rounded=0;" edge="1" target="GurUiTmw81_vaHMGaT-g-91" source="GurUiTmw81_vaHMGaT-g-81" parent="GurUiTmw81_vaHMGaT-g-76">
          <mxGeometry relative="1" as="geometry">
            <mxPoint x="1585" y="210" as="sourcePoint" />
          </mxGeometry>
        </mxCell>
        <mxCell id="GurUiTmw81_vaHMGaT-g-91" value="B C A" style="whiteSpace=wrap;html=1;align=center;verticalAlign=middle;treeFolding=1;treeMoving=1;newEdgeStyle={&quot;edgeStyle&quot;:&quot;elbowEdgeStyle&quot;,&quot;startArrow&quot;:&quot;none&quot;,&quot;endArrow&quot;:&quot;none&quot;};" vertex="1" parent="GurUiTmw81_vaHMGaT-g-76">
          <mxGeometry x="720" y="260" width="100" height="60" as="geometry" />
        </mxCell>
        <mxCell id="GurUiTmw81_vaHMGaT-g-97" value="" style="edgeStyle=elbowEdgeStyle;elbow=vertical;startArrow=none;endArrow=none;rounded=0;" edge="1" target="GurUiTmw81_vaHMGaT-g-98" source="GurUiTmw81_vaHMGaT-g-79" parent="GurUiTmw81_vaHMGaT-g-76">
          <mxGeometry relative="1" as="geometry">
            <mxPoint x="1595" y="200" as="sourcePoint" />
          </mxGeometry>
        </mxCell>
        <mxCell id="GurUiTmw81_vaHMGaT-g-98" value="A C B" style="whiteSpace=wrap;html=1;align=center;verticalAlign=middle;treeFolding=1;treeMoving=1;newEdgeStyle={&quot;edgeStyle&quot;:&quot;elbowEdgeStyle&quot;,&quot;startArrow&quot;:&quot;none&quot;,&quot;endArrow&quot;:&quot;none&quot;};" vertex="1" parent="GurUiTmw81_vaHMGaT-g-76">
          <mxGeometry x="880" y="160" width="100" height="60" as="geometry" />
        </mxCell>
        <mxCell id="GurUiTmw81_vaHMGaT-g-99" value="" style="edgeStyle=elbowEdgeStyle;elbow=vertical;startArrow=none;endArrow=none;rounded=0;" edge="1" target="GurUiTmw81_vaHMGaT-g-100" source="GurUiTmw81_vaHMGaT-g-98" parent="GurUiTmw81_vaHMGaT-g-76">
          <mxGeometry relative="1" as="geometry">
            <mxPoint x="1595" y="200" as="sourcePoint" />
          </mxGeometry>
        </mxCell>
        <mxCell id="GurUiTmw81_vaHMGaT-g-100" value="C A B" style="whiteSpace=wrap;html=1;align=center;verticalAlign=middle;treeFolding=1;treeMoving=1;newEdgeStyle={&quot;edgeStyle&quot;:&quot;elbowEdgeStyle&quot;,&quot;startArrow&quot;:&quot;none&quot;,&quot;endArrow&quot;:&quot;none&quot;};" vertex="1" parent="GurUiTmw81_vaHMGaT-g-76">
          <mxGeometry x="880" y="260" width="100" height="60" as="geometry" />
        </mxCell>
        <mxCell id="GurUiTmw81_vaHMGaT-g-103" value="" style="edgeStyle=elbowEdgeStyle;elbow=vertical;startArrow=none;endArrow=none;rounded=0;" edge="1" target="GurUiTmw81_vaHMGaT-g-104" source="GurUiTmw81_vaHMGaT-g-98" parent="GurUiTmw81_vaHMGaT-g-76">
          <mxGeometry relative="1" as="geometry">
            <mxPoint x="1595" y="200" as="sourcePoint" />
          </mxGeometry>
        </mxCell>
        <mxCell id="GurUiTmw81_vaHMGaT-g-104" value="C B A" style="whiteSpace=wrap;html=1;align=center;verticalAlign=middle;treeFolding=1;treeMoving=1;newEdgeStyle={&quot;edgeStyle&quot;:&quot;elbowEdgeStyle&quot;,&quot;startArrow&quot;:&quot;none&quot;,&quot;endArrow&quot;:&quot;none&quot;};" vertex="1" parent="GurUiTmw81_vaHMGaT-g-76">
          <mxGeometry x="990" y="260" width="100" height="60" as="geometry" />
        </mxCell>
        <mxCell id="GurUiTmw81_vaHMGaT-g-105" value="" style="ellipse;whiteSpace=wrap;html=1;" vertex="1" parent="WIyWlLk6GJQsqaUBKTNV-1">
          <mxGeometry x="970" y="510" width="120" height="80" as="geometry" />
        </mxCell>
      </root>
    </mxGraphModel>
  </diagram>
</mxfile>
